<?xml version="1.0" standalone="no"?>
<!DOCTYPE svg PUBLIC "-//W3C//DTD SVG 20010904//EN"
 "http://www.w3.org/TR/2001/REC-SVG-20010904/DTD/svg10.dtd">
<svg version="1.0" xmlns="http://www.w3.org/2000/svg"
 width="100.000000pt" height="100.000000pt" viewBox="0 0 100.000000 100.000000"
 preserveAspectRatio="xMidYMid meet">
<metadata>
Created by potrace 1.11, written by Peter Selinger 2001-2013
</metadata>
<g transform="translate(0.000000,100.000000) scale(0.100000,-0.100000)"
fill="#000000" stroke="none">
<path d="M188 763 c-168 -50 -227 -323 -98 -459 52 -55 110 -78 200 -78 81 -1
142 18 196 59 l31 23 -1 99 -1 98 -100 2 c-124 2 -131 0 -129 -34 1 -30 -1
-29 122 -32 l33 -1 -3 -52 c-3 -52 -4 -53 -51 -77 -100 -49 -223 -18 -267 69
-47 92 -24 243 43 294 85 65 218 47 259 -34 10 -19 22 -35 28 -34 5 1 20 2 31
3 18 1 21 5 15 32 -16 79 -90 131 -196 134 -36 1 -86 -4 -112 -12z"/>
<path d="M620 500 l0 -270 38 0 39 0 -2 113 c-1 61 0 117 2 122 2 7 46 10 116
9 61 -1 117 1 123 3 6 2 11 16 10 31 l-1 27 -125 5 -125 5 0 78 c0 70 1 77 20
78 11 1 76 2 145 3 l125 1 0 30 0 30 -182 3 -183 2 0 -270z"/>
</g>
</svg>
